
<svg width="20" height="9" viewBox="0 0 24 13" fill="none" xmlns="http://www.w3.org/2000/svg">
    <path d="M23.54 2.57199L13.2446 12.478C12.8794 12.8345 12.4735 13 12 13C11.5265 13 11.0936 12.8217 10.7418 12.478L0.459977 2.57199C0.162344 2.27914 -7.21542e-07 1.93536 -7.21542e-07 1.51518C-7.21542e-07 0.662096 0.703494 2.08034e-07 1.59639 2.08034e-07C2.02931 2.08034e-07 2.4487 0.165524 2.75986 0.458374L11.9865 9.38394L21.2401 0.458374C21.5513 0.165524 21.9572 2.08034e-07 22.4036 2.08034e-07C23.2965 2.08034e-07 24 0.662096 24 1.51518C24 1.92263 23.8377 2.27914 23.54 2.57199Z" fill="#393939"/>
</svg>
