<svg width="31" height="27" viewBox="0 0 31 27" fill="none" xmlns="http://www.w3.org/2000/svg">
    <path d="M16.4633 22.5148L24.0047 18.7179C25.0264 18.2009 25.3086 17.7093 25.3086 16.7347V8.92906C25.3086 7.55608 23.9268 7.19165 22.8273 7.74254L21.1341 8.59006V6.80179C21.1341 5.42882 19.7523 5.05591 18.6528 5.6068L17.1737 6.35261V4.81013C17.1737 3.43715 15.8017 3.07272 14.7021 3.62361L7.01479 7.49676C6.03198 7.98832 5.69141 8.5053 5.69141 9.4969V17.0906C5.69141 18.6416 6.83963 19.1501 8.33817 18.3958L9.65182 17.7348V19.0738C9.65182 20.6248 10.7903 21.1333 12.2889 20.379L13.8166 19.6078V21.2011C13.8166 22.7521 14.9648 23.2606 16.4633 22.5148ZM7.56944 16.7262V9.5308C7.56944 9.20027 7.67648 9.09009 7.9684 8.93754L15.14 5.32712C15.2275 5.28474 15.2957 5.32712 15.2957 5.40339V7.30183L10.9655 9.47995C9.98267 9.97998 9.65182 10.4885 9.65182 11.4801V15.8194L7.7154 16.794C7.62782 16.8364 7.56944 16.8025 7.56944 16.7262ZM13.8166 13.6074V17.7009L11.6758 18.7772C11.5882 18.8196 11.5299 18.7942 11.5299 18.7094V11.514C11.5299 11.1835 11.6272 11.0733 11.9191 10.9207L19.0906 7.3103C19.188 7.26793 19.2561 7.3103 19.2561 7.38658V9.53927L15.14 11.6072C14.1572 12.1073 13.8166 12.6242 13.8166 13.6074ZM16.0936 13.048L23.2651 9.44605C23.3624 9.3952 23.4306 9.43757 23.4306 9.51385V16.6754C23.4306 16.9805 23.3527 17.1161 23.0413 17.2771L15.8503 20.913C15.7627 20.9553 15.6946 20.9214 15.6946 20.8367V13.6497C15.6946 13.3107 15.8017 13.2005 16.0936 13.048Z" fill="black"/>
</svg>
