<svg width="29" height="20" viewBox="0 0 29 20" fill="none" xmlns="http://www.w3.org/2000/svg">
    <path d="M4.71509 19.6285H24.4613C26.824 19.6285 28.1951 18.3981 28.1951 16.047V3.9071C28.1951 1.55603 26.8117 0.325562 24.1675 0.325562H4.42128C2.05859 0.325562 0.6875 1.54504 0.6875 3.9071V16.047C0.6875 18.3981 2.07084 19.6285 4.71509 19.6285ZM13.0641 10.3561L4.15196 2.44592C4.32335 2.41296 4.51922 2.39099 4.72733 2.39099H24.1552C24.3756 2.39099 24.5715 2.41296 24.7551 2.45691L15.8552 10.3561C15.3411 10.8065 14.9126 11.0043 14.4596 11.0043C14.0067 11.0043 13.5782 10.7955 13.0641 10.3561ZM2.97674 4.06091L9.63634 9.9386L2.97674 15.8492V4.06091ZM19.283 9.9386L25.9058 4.09387V15.8273L19.283 9.9386ZM4.72733 17.5521C4.50698 17.5521 4.29886 17.5302 4.11523 17.4972L11.1298 11.257L11.7909 11.8502C12.6846 12.6302 13.5415 12.9598 14.4596 12.9598C15.3655 12.9598 16.2347 12.6302 17.1161 11.8502L17.7894 11.257L24.7918 17.4862C24.5959 17.5301 24.3878 17.5521 24.1552 17.5521H4.72733Z" fill="#1C1C1E"/>
</svg>
