
<svg width="18" height="19" viewBox="0 0 18 19" fill="none" xmlns="http://www.w3.org/2000/svg">
    <path d="M9.00512 9.54575C11.4815 9.54575 13.4872 7.37025 13.4872 4.7068C13.4872 2.084 11.4815 0 9.00512 0C6.53894 0 4.51279 2.1145 4.52302 4.72713C4.53326 7.38042 6.52871 9.54575 9.00512 9.54575ZM9.00512 7.76672C7.59295 7.76672 6.39568 6.43499 6.39568 4.72713C6.38545 3.05993 7.58272 1.77903 9.00512 1.77903C10.4377 1.77903 11.6146 3.03959 11.6146 4.7068C11.6146 6.41466 10.4275 7.76672 9.00512 7.76672ZM2.61967 19H15.3803C17.1507 19 18 18.4409 18 17.2413C18 14.4457 14.4901 10.725 9.00512 10.725C3.52018 10.725 0 14.4457 0 17.2413C0 18.4409 0.849346 19 2.61967 19ZM2.30244 17.221C2.05685 17.221 1.96475 17.1396 1.96475 16.9567C1.96475 15.4013 4.49233 12.504 9.00512 12.504C13.5077 12.504 16.0352 15.4013 16.0352 16.9567C16.0352 17.1396 15.9432 17.221 15.6976 17.221H2.30244Z" fill="black"/>
</svg>
