<svg width="30" height="32" viewBox="0 0 30 32" fill="none" xmlns="http://www.w3.org/2000/svg">
    <path d="M19.9156 15.7054C22.1945 15.7054 24.0402 13.5658 24.0402 10.9342C24.0402 8.34263 22.2039 6.27344 19.9156 6.27344C17.6556 6.27344 15.7911 8.37277 15.7911 10.9542C15.8005 13.5759 17.6462 15.7054 19.9156 15.7054ZM9.00152 15.9364C10.9885 15.9364 12.5893 14.058 12.5893 11.7377C12.5893 9.47768 10.9885 7.64955 9.00152 7.64955C7.03339 7.64955 5.40428 9.50781 5.4137 11.7478C5.4137 14.0681 7.02398 15.9364 9.00152 15.9364ZM19.9156 13.9475C18.6161 13.9475 17.5144 12.6417 17.5144 10.9442C17.5144 9.30692 18.6067 8.03125 19.9156 8.03125C21.234 8.03125 22.3169 9.28683 22.3169 10.9342C22.3169 12.6217 21.2246 13.9475 19.9156 13.9475ZM9.00152 14.1987C7.93741 14.1987 7.03339 13.1138 7.03339 11.7478C7.03339 10.442 7.928 9.37723 9.00152 9.37723C10.0939 9.37723 10.9791 10.4219 10.9791 11.7377C10.9791 13.1138 10.075 14.1987 9.00152 14.1987ZM3.82225 25.1674H11.1391C10.6212 24.846 10.2728 24.1127 10.3387 23.4498H3.7375C3.55858 23.4498 3.48324 23.3594 3.48324 23.1886C3.48324 20.8884 6.00696 18.6987 8.9921 18.6987C10.0468 18.6987 11.1015 18.9799 11.9113 19.4621C12.2315 18.9699 12.627 18.548 13.1449 18.1864C11.949 17.4029 10.4611 16.981 8.9921 16.981C5.00877 16.981 1.78821 20.0145 1.78821 23.3493C1.78821 24.5547 2.46622 25.1674 3.82225 25.1674ZM14.049 25.1674H25.7823C27.4115 25.1674 28.2025 24.615 28.2025 23.4297C28.2025 20.6674 24.9631 16.9911 19.9156 16.9911C14.8682 16.9911 11.6288 20.6674 11.6288 23.4297C11.6288 24.615 12.4198 25.1674 14.049 25.1674ZM13.7476 23.4096C13.531 23.4096 13.4463 23.3292 13.4463 23.1484C13.4463 21.6116 15.7722 18.7489 19.9156 18.7489C24.0591 18.7489 26.385 21.6116 26.385 23.1484C26.385 23.3292 26.3003 23.4096 26.0743 23.4096H13.7476Z" fill="black"/>
</svg>
